<mxfile host="Electron" agent="Mozilla/5.0 (Windows NT 10.0; Win64; x64) AppleWebKit/537.36 (KHTML, like Gecko) draw.io/27.0.5 Chrome/134.0.6998.205 Electron/35.3.0 Safari/537.36" version="27.0.5" pages="2">
  <diagram name="Page-1" id="Fl7zKLLlol0BHQ1zrM9f">
    <mxGraphModel dx="1042" dy="626" grid="1" gridSize="10" guides="1" tooltips="1" connect="1" arrows="1" fold="1" page="1" pageScale="1" pageWidth="850" pageHeight="1100" math="0" shadow="0">
      <root>
        <mxCell id="0" />
        <mxCell id="1" parent="0" />
        <mxCell id="qBpky_epYB3PaJ9lXeuk-1" value="" style="image;aspect=fixed;html=1;points=[];align=center;fontSize=16;image=img/lib/azure2/databases/Azure_Database_PostgreSQL_Server.svg;" vertex="1" parent="1">
          <mxGeometry x="700" y="340" width="90" height="120" as="geometry" />
        </mxCell>
        <mxCell id="qBpky_epYB3PaJ9lXeuk-2" value="PostgreSQL" style="text;html=1;align=center;verticalAlign=middle;resizable=0;points=[];autosize=1;strokeColor=none;fillColor=none;fontSize=16;fontStyle=1" vertex="1" parent="1">
          <mxGeometry x="690" y="470" width="110" height="30" as="geometry" />
        </mxCell>
        <mxCell id="qBpky_epYB3PaJ9lXeuk-4" value="Backend" style="rounded=0;whiteSpace=wrap;html=1;fontStyle=1;fontSize=16;" vertex="1" parent="1">
          <mxGeometry x="390" y="350" width="170" height="122" as="geometry" />
        </mxCell>
        <mxCell id="qBpky_epYB3PaJ9lXeuk-3" value="" style="shape=image;verticalLabelPosition=bottom;labelBackgroundColor=default;verticalAlign=top;aspect=fixed;imageAspect=0;image=https://blog.jetbrains.com/wp-content/uploads/2018/11/kotlin-Ktor.png;fontSize=16;" vertex="1" parent="1">
          <mxGeometry x="460" y="422" width="105" height="52.5" as="geometry" />
        </mxCell>
        <mxCell id="qBpky_epYB3PaJ9lXeuk-7" value="Frontend" style="rounded=0;whiteSpace=wrap;html=1;fontStyle=1;fontSize=16;" vertex="1" parent="1">
          <mxGeometry x="90" y="354.5" width="170" height="120" as="geometry" />
        </mxCell>
        <mxCell id="qBpky_epYB3PaJ9lXeuk-8" value="" style="shape=image;verticalLabelPosition=bottom;labelBackgroundColor=default;verticalAlign=top;aspect=fixed;imageAspect=0;image=https://miro.medium.com/v2/resize:fit:522/1*NJSv6DGoKTloI8d8im98zg.png;fontSize=16;" vertex="1" parent="1">
          <mxGeometry x="190" y="414.5" width="87.51" height="57.5" as="geometry" />
        </mxCell>
        <mxCell id="qBpky_epYB3PaJ9lXeuk-10" value="" style="shape=singleArrow;whiteSpace=wrap;html=1;fontSize=16;" vertex="1" parent="1">
          <mxGeometry x="270" y="362.5" width="110" height="37.5" as="geometry" />
        </mxCell>
        <mxCell id="qBpky_epYB3PaJ9lXeuk-12" value="" style="shape=singleArrow;whiteSpace=wrap;html=1;rotation=-180;fontSize=16;" vertex="1" parent="1">
          <mxGeometry x="270" y="414.5" width="110" height="37.5" as="geometry" />
        </mxCell>
        <mxCell id="qBpky_epYB3PaJ9lXeuk-14" value="" style="shape=singleArrow;whiteSpace=wrap;html=1;fontSize=16;" vertex="1" parent="1">
          <mxGeometry x="580" y="370" width="110" height="37.5" as="geometry" />
        </mxCell>
        <mxCell id="qBpky_epYB3PaJ9lXeuk-15" value="" style="shape=singleArrow;whiteSpace=wrap;html=1;rotation=-180;fontSize=16;" vertex="1" parent="1">
          <mxGeometry x="580" y="422" width="110" height="37.5" as="geometry" />
        </mxCell>
      </root>
    </mxGraphModel>
  </diagram>
  <diagram id="qmD7csJV9LF86m-fVS4O" name="Use-Case">
    <mxGraphModel dx="1042" dy="626" grid="1" gridSize="10" guides="1" tooltips="1" connect="1" arrows="1" fold="1" page="1" pageScale="1" pageWidth="850" pageHeight="1100" math="0" shadow="0">
      <root>
        <mxCell id="0" />
        <mxCell id="1" parent="0" />
        <mxCell id="Olbofyi3Py1XjEG1FyNZ-1" value="Соискатель" style="shape=umlActor;verticalLabelPosition=bottom;verticalAlign=top;html=1;outlineConnect=0;" parent="1" vertex="1">
          <mxGeometry x="330" y="370" width="30" height="60" as="geometry" />
        </mxCell>
        <mxCell id="Olbofyi3Py1XjEG1FyNZ-4" value="Работодатель" style="shape=umlActor;verticalLabelPosition=bottom;verticalAlign=top;html=1;outlineConnect=0;" parent="1" vertex="1">
          <mxGeometry x="410" y="370" width="30" height="60" as="geometry" />
        </mxCell>
        <mxCell id="Olbofyi3Py1XjEG1FyNZ-5" value="Администратор" style="shape=umlActor;verticalLabelPosition=bottom;verticalAlign=top;html=1;outlineConnect=0;" parent="1" vertex="1">
          <mxGeometry x="370" y="120" width="30" height="60" as="geometry" />
        </mxCell>
        <mxCell id="Olbofyi3Py1XjEG1FyNZ-7" value="Регистрация" style="ellipse;whiteSpace=wrap;html=1;" parent="1" vertex="1">
          <mxGeometry x="20" y="50" width="130" height="40" as="geometry" />
        </mxCell>
        <mxCell id="Olbofyi3Py1XjEG1FyNZ-8" value="Гость" style="shape=umlActor;verticalLabelPosition=bottom;verticalAlign=top;html=1;outlineConnect=0;" parent="1" vertex="1">
          <mxGeometry x="300" y="120" width="30" height="60" as="geometry" />
        </mxCell>
        <mxCell id="Olbofyi3Py1XjEG1FyNZ-10" value="Авторизация" style="ellipse;whiteSpace=wrap;html=1;" parent="1" vertex="1">
          <mxGeometry x="20" y="110" width="130" height="40" as="geometry" />
        </mxCell>
        <mxCell id="Olbofyi3Py1XjEG1FyNZ-11" value="Просмотр вакансий" style="ellipse;whiteSpace=wrap;html=1;" parent="1" vertex="1">
          <mxGeometry x="20" y="170" width="130" height="40" as="geometry" />
        </mxCell>
        <mxCell id="Olbofyi3Py1XjEG1FyNZ-12" value="Просмотр вакансий" style="ellipse;whiteSpace=wrap;html=1;" parent="1" vertex="1">
          <mxGeometry x="140" y="310" width="130" height="50" as="geometry" />
        </mxCell>
        <mxCell id="Olbofyi3Py1XjEG1FyNZ-13" value="Управление резюме" style="ellipse;whiteSpace=wrap;html=1;" parent="1" vertex="1">
          <mxGeometry x="160" y="380" width="130" height="50" as="geometry" />
        </mxCell>
        <mxCell id="Olbofyi3Py1XjEG1FyNZ-14" value="Настройка уведомлений" style="ellipse;whiteSpace=wrap;html=1;" parent="1" vertex="1">
          <mxGeometry x="150" y="530" width="130" height="50" as="geometry" />
        </mxCell>
        <mxCell id="Olbofyi3Py1XjEG1FyNZ-16" value="Управление пользователями" style="ellipse;whiteSpace=wrap;html=1;" parent="1" vertex="1">
          <mxGeometry x="500" y="80" width="130" height="50" as="geometry" />
        </mxCell>
        <mxCell id="Olbofyi3Py1XjEG1FyNZ-17" value="Управление вакансиями" style="ellipse;whiteSpace=wrap;html=1;" parent="1" vertex="1">
          <mxGeometry x="500" y="150" width="130" height="50" as="geometry" />
        </mxCell>
        <mxCell id="Olbofyi3Py1XjEG1FyNZ-21" value="" style="endArrow=classic;html=1;rounded=0;entryX=0;entryY=0.5;entryDx=0;entryDy=0;startFill=0;endFill=1;" parent="1" target="Olbofyi3Py1XjEG1FyNZ-16" edge="1">
          <mxGeometry width="50" height="50" relative="1" as="geometry">
            <mxPoint x="400" y="150" as="sourcePoint" />
            <mxPoint x="280" y="219" as="targetPoint" />
          </mxGeometry>
        </mxCell>
        <mxCell id="Olbofyi3Py1XjEG1FyNZ-22" value="" style="endArrow=classic;html=1;rounded=0;entryX=0;entryY=0.5;entryDx=0;entryDy=0;startFill=0;endFill=1;" parent="1" target="Olbofyi3Py1XjEG1FyNZ-17" edge="1">
          <mxGeometry width="50" height="50" relative="1" as="geometry">
            <mxPoint x="400" y="150" as="sourcePoint" />
            <mxPoint x="510" y="155" as="targetPoint" />
          </mxGeometry>
        </mxCell>
        <mxCell id="Olbofyi3Py1XjEG1FyNZ-25" value="Создание/удаление резюме" style="ellipse;whiteSpace=wrap;html=1;" parent="1" vertex="1">
          <mxGeometry y="310" width="130" height="60" as="geometry" />
        </mxCell>
        <mxCell id="Olbofyi3Py1XjEG1FyNZ-26" value="&amp;lt;&amp;lt;extend&amp;gt;&amp;gt;" style="html=1;verticalAlign=bottom;labelBackgroundColor=none;endArrow=open;endFill=0;dashed=1;rounded=0;entryX=0;entryY=0.5;entryDx=0;entryDy=0;exitX=1;exitY=0.5;exitDx=0;exitDy=0;" parent="1" source="Olbofyi3Py1XjEG1FyNZ-25" target="Olbofyi3Py1XjEG1FyNZ-13" edge="1">
          <mxGeometry width="160" relative="1" as="geometry">
            <mxPoint y="300" as="sourcePoint" />
            <mxPoint x="50" y="290" as="targetPoint" />
          </mxGeometry>
        </mxCell>
        <mxCell id="Olbofyi3Py1XjEG1FyNZ-28" value="Управление вакансиями" style="ellipse;whiteSpace=wrap;html=1;" parent="1" vertex="1">
          <mxGeometry x="500" y="390" width="150" height="60" as="geometry" />
        </mxCell>
        <mxCell id="Olbofyi3Py1XjEG1FyNZ-29" value="Создание компании" style="ellipse;whiteSpace=wrap;html=1;" parent="1" vertex="1">
          <mxGeometry x="500" y="320" width="150" height="60" as="geometry" />
        </mxCell>
        <mxCell id="Olbofyi3Py1XjEG1FyNZ-37" value="Управление работодателями" style="ellipse;whiteSpace=wrap;html=1;" parent="1" vertex="1">
          <mxGeometry x="500" y="210" width="130" height="50" as="geometry" />
        </mxCell>
        <mxCell id="Olbofyi3Py1XjEG1FyNZ-38" value="" style="endArrow=classic;html=1;rounded=0;entryX=0;entryY=0.5;entryDx=0;entryDy=0;startFill=0;endFill=1;" parent="1" target="Olbofyi3Py1XjEG1FyNZ-37" edge="1">
          <mxGeometry width="50" height="50" relative="1" as="geometry">
            <mxPoint x="400" y="150" as="sourcePoint" />
            <mxPoint x="510" y="296" as="targetPoint" />
          </mxGeometry>
        </mxCell>
        <mxCell id="M7NywdlDFWJbdOSFDdIy-2" value="Откликнуться на вакансию" style="ellipse;whiteSpace=wrap;html=1;" parent="1" vertex="1">
          <mxGeometry x="90" y="220" width="130" height="50" as="geometry" />
        </mxCell>
        <mxCell id="M7NywdlDFWJbdOSFDdIy-3" value="&amp;lt;&amp;lt;extend&amp;gt;&amp;gt;" style="html=1;verticalAlign=bottom;labelBackgroundColor=none;endArrow=open;endFill=0;dashed=1;rounded=0;entryX=0.446;entryY=0.02;entryDx=0;entryDy=0;entryPerimeter=0;exitX=0.5;exitY=1;exitDx=0;exitDy=0;" parent="1" source="M7NywdlDFWJbdOSFDdIy-2" target="Olbofyi3Py1XjEG1FyNZ-12" edge="1">
          <mxGeometry width="160" relative="1" as="geometry">
            <mxPoint x="240" y="250" as="sourcePoint" />
            <mxPoint x="460" y="250" as="targetPoint" />
          </mxGeometry>
        </mxCell>
        <mxCell id="M7NywdlDFWJbdOSFDdIy-6" value="Редактирование резюме" style="ellipse;whiteSpace=wrap;html=1;" parent="1" vertex="1">
          <mxGeometry y="425" width="130" height="50" as="geometry" />
        </mxCell>
        <mxCell id="M7NywdlDFWJbdOSFDdIy-7" value="&amp;lt;&amp;lt;extend&amp;gt;&amp;gt;" style="html=1;verticalAlign=bottom;labelBackgroundColor=none;endArrow=open;endFill=0;dashed=1;rounded=0;entryX=0;entryY=0.5;entryDx=0;entryDy=0;exitX=1;exitY=0.5;exitDx=0;exitDy=0;" parent="1" source="M7NywdlDFWJbdOSFDdIy-6" target="Olbofyi3Py1XjEG1FyNZ-13" edge="1">
          <mxGeometry width="160" relative="1" as="geometry">
            <mxPoint x="20" y="345" as="sourcePoint" />
            <mxPoint x="100" y="405" as="targetPoint" />
          </mxGeometry>
        </mxCell>
        <mxCell id="M7NywdlDFWJbdOSFDdIy-8" value="Управление профилем" style="ellipse;whiteSpace=wrap;html=1;" parent="1" vertex="1">
          <mxGeometry x="140" y="450" width="130" height="50" as="geometry" />
        </mxCell>
        <mxCell id="M7NywdlDFWJbdOSFDdIy-10" value="" style="endArrow=classic;html=1;rounded=0;entryX=1;entryY=0.5;entryDx=0;entryDy=0;" parent="1" target="Olbofyi3Py1XjEG1FyNZ-7" edge="1">
          <mxGeometry width="50" height="50" relative="1" as="geometry">
            <mxPoint x="290" y="150" as="sourcePoint" />
            <mxPoint x="-130" y="160" as="targetPoint" />
          </mxGeometry>
        </mxCell>
        <mxCell id="M7NywdlDFWJbdOSFDdIy-11" value="" style="endArrow=classic;html=1;rounded=0;entryX=1;entryY=0.5;entryDx=0;entryDy=0;" parent="1" target="Olbofyi3Py1XjEG1FyNZ-10" edge="1">
          <mxGeometry width="50" height="50" relative="1" as="geometry">
            <mxPoint x="290" y="150" as="sourcePoint" />
            <mxPoint x="160" y="80" as="targetPoint" />
          </mxGeometry>
        </mxCell>
        <mxCell id="M7NywdlDFWJbdOSFDdIy-14" value="" style="endArrow=classic;html=1;rounded=0;entryX=1;entryY=0.5;entryDx=0;entryDy=0;" parent="1" target="Olbofyi3Py1XjEG1FyNZ-11" edge="1">
          <mxGeometry width="50" height="50" relative="1" as="geometry">
            <mxPoint x="290" y="150" as="sourcePoint" />
            <mxPoint x="160" y="140" as="targetPoint" />
          </mxGeometry>
        </mxCell>
        <mxCell id="M7NywdlDFWJbdOSFDdIy-15" value="" style="endArrow=classic;html=1;rounded=0;entryX=1;entryY=0.5;entryDx=0;entryDy=0;" parent="1" target="Olbofyi3Py1XjEG1FyNZ-12" edge="1">
          <mxGeometry width="50" height="50" relative="1" as="geometry">
            <mxPoint x="320" y="400" as="sourcePoint" />
            <mxPoint x="310" y="245" as="targetPoint" />
          </mxGeometry>
        </mxCell>
        <mxCell id="M7NywdlDFWJbdOSFDdIy-16" value="" style="endArrow=classic;html=1;rounded=0;entryX=1;entryY=0.5;entryDx=0;entryDy=0;" parent="1" target="Olbofyi3Py1XjEG1FyNZ-13" edge="1">
          <mxGeometry width="50" height="50" relative="1" as="geometry">
            <mxPoint x="320" y="400" as="sourcePoint" />
            <mxPoint x="230" y="340" as="targetPoint" />
          </mxGeometry>
        </mxCell>
        <mxCell id="M7NywdlDFWJbdOSFDdIy-17" value="" style="endArrow=classic;html=1;rounded=0;entryX=1;entryY=0.5;entryDx=0;entryDy=0;" parent="1" target="M7NywdlDFWJbdOSFDdIy-8" edge="1">
          <mxGeometry width="50" height="50" relative="1" as="geometry">
            <mxPoint x="320" y="400" as="sourcePoint" />
            <mxPoint x="230" y="405" as="targetPoint" />
          </mxGeometry>
        </mxCell>
        <mxCell id="M7NywdlDFWJbdOSFDdIy-18" value="" style="endArrow=classic;html=1;rounded=0;entryX=1;entryY=0.5;entryDx=0;entryDy=0;" parent="1" target="Olbofyi3Py1XjEG1FyNZ-14" edge="1">
          <mxGeometry width="50" height="50" relative="1" as="geometry">
            <mxPoint x="320" y="400" as="sourcePoint" />
            <mxPoint x="230" y="465" as="targetPoint" />
          </mxGeometry>
        </mxCell>
        <mxCell id="M7NywdlDFWJbdOSFDdIy-19" value="" style="endArrow=classic;html=1;rounded=0;entryX=0;entryY=0.5;entryDx=0;entryDy=0;" parent="1" target="Olbofyi3Py1XjEG1FyNZ-29" edge="1">
          <mxGeometry width="50" height="50" relative="1" as="geometry">
            <mxPoint x="430" y="400" as="sourcePoint" />
            <mxPoint x="370" y="230" as="targetPoint" />
          </mxGeometry>
        </mxCell>
        <mxCell id="M7NywdlDFWJbdOSFDdIy-20" value="" style="endArrow=classic;html=1;rounded=0;entryX=0;entryY=0.5;entryDx=0;entryDy=0;" parent="1" target="Olbofyi3Py1XjEG1FyNZ-28" edge="1">
          <mxGeometry width="50" height="50" relative="1" as="geometry">
            <mxPoint x="430" y="400" as="sourcePoint" />
            <mxPoint x="520" y="355" as="targetPoint" />
          </mxGeometry>
        </mxCell>
        <mxCell id="M7NywdlDFWJbdOSFDdIy-28" value="" style="edgeStyle=orthogonalEdgeStyle;rounded=0;orthogonalLoop=1;jettySize=auto;html=1;" parent="1" source="M7NywdlDFWJbdOSFDdIy-22" target="Olbofyi3Py1XjEG1FyNZ-28" edge="1">
          <mxGeometry relative="1" as="geometry" />
        </mxCell>
        <mxCell id="M7NywdlDFWJbdOSFDdIy-22" value="Создание/удаление вакансий" style="ellipse;whiteSpace=wrap;html=1;" parent="1" vertex="1">
          <mxGeometry x="700" y="390" width="150" height="60" as="geometry" />
        </mxCell>
        <mxCell id="M7NywdlDFWJbdOSFDdIy-23" value="&amp;lt;&amp;lt;extend&amp;gt;&amp;gt;" style="html=1;verticalAlign=bottom;labelBackgroundColor=none;endArrow=open;endFill=0;dashed=1;rounded=0;exitX=0;exitY=0.5;exitDx=0;exitDy=0;entryX=1;entryY=0.5;entryDx=0;entryDy=0;" parent="1" source="M7NywdlDFWJbdOSFDdIy-22" target="Olbofyi3Py1XjEG1FyNZ-28" edge="1">
          <mxGeometry width="160" relative="1" as="geometry">
            <mxPoint x="590" y="490" as="sourcePoint" />
            <mxPoint x="430" y="490" as="targetPoint" />
          </mxGeometry>
        </mxCell>
        <mxCell id="M7NywdlDFWJbdOSFDdIy-25" value="Просмотр резюме" style="ellipse;whiteSpace=wrap;html=1;" parent="1" vertex="1">
          <mxGeometry x="500" y="460" width="150" height="60" as="geometry" />
        </mxCell>
        <mxCell id="M7NywdlDFWJbdOSFDdIy-26" value="" style="endArrow=classic;html=1;rounded=0;entryX=0;entryY=0.5;entryDx=0;entryDy=0;" parent="1" target="M7NywdlDFWJbdOSFDdIy-25" edge="1">
          <mxGeometry width="50" height="50" relative="1" as="geometry">
            <mxPoint x="430" y="400" as="sourcePoint" />
            <mxPoint x="510" y="430" as="targetPoint" />
          </mxGeometry>
        </mxCell>
        <mxCell id="M7NywdlDFWJbdOSFDdIy-27" value="Верификация работодателей" style="ellipse;whiteSpace=wrap;html=1;" parent="1" vertex="1">
          <mxGeometry x="690" y="205" width="150" height="60" as="geometry" />
        </mxCell>
        <mxCell id="M7NywdlDFWJbdOSFDdIy-29" value="&amp;lt;&amp;lt;extend&amp;gt;&amp;gt;" style="html=1;verticalAlign=bottom;labelBackgroundColor=none;endArrow=open;endFill=0;dashed=1;rounded=0;exitX=0;exitY=0.5;exitDx=0;exitDy=0;entryX=1;entryY=0.5;entryDx=0;entryDy=0;" parent="1" source="M7NywdlDFWJbdOSFDdIy-27" target="Olbofyi3Py1XjEG1FyNZ-37" edge="1">
          <mxGeometry width="160" relative="1" as="geometry">
            <mxPoint x="710" y="430" as="sourcePoint" />
            <mxPoint x="660" y="430" as="targetPoint" />
          </mxGeometry>
        </mxCell>
      </root>
    </mxGraphModel>
  </diagram>
</mxfile>
